<svg width="20" height="21" viewBox="0 0 20 21" fill="none" xmlns="http://www.w3.org/2000/svg">
<g clip-path="url(#clip0_3566_508)">
<path d="M2.42557 10.5429C2.42557 6.31192 5.85541 2.8826 10.0867 2.8826C12.0714 2.8826 13.8799 3.63676 15.2407 4.87528L16.0876 3.94382L15.3607 3.29013L15.759 2.09529C15.408 1.85889 15.0408 1.64356 14.66 1.45136L13.8195 2.40338L11.9601 1.79979L11.8365 0.518356C11.4249 0.447179 11.0061 0.400671 10.5798 0.380371L10.1915 1.61607L8.24714 1.82189L7.59833 0.674841C7.1908 0.77711 6.79304 0.904302 6.40632 1.05436L6.55741 2.37203L4.8651 3.35026L3.78589 2.55292C3.46007 2.81014 3.15121 3.08688 2.85906 3.38083L3.5441 4.54073L2.39602 6.12383L1.06705 5.8291C0.876649 6.19218 0.707831 6.56862 0.562137 6.95585L1.67501 7.7483L1.26902 9.66081L-0.0704855 9.9337C-0.0828193 10.1357 -0.0887299 10.3387 -0.0887299 10.5427C-0.0887299 10.7521 -0.0823065 10.961 -0.0699727 11.1671L1.27005 11.4392L1.67784 13.3499L0.567275 14.1436C0.713483 14.5306 0.88333 14.9065 1.07348 15.2694L2.40271 14.9734L3.55283 16.5547L2.86959 17.7156C3.16175 18.009 3.47138 18.2852 3.7972 18.5414L4.87538 17.7428L6.5682 18.7195L6.41891 20.0367C6.80614 20.1862 7.20468 20.3121 7.61298 20.4146L8.25948 19.2681L10.2044 19.4706L10.5942 20.704C11.0202 20.6834 11.4396 20.6364 11.8509 20.5644L11.973 19.283L13.8308 18.6774L14.6718 19.6276C15.0531 19.4349 15.4198 19.2188 15.7713 18.9821L15.371 17.7878L16.8228 16.4786L17.9549 16.9943C18.2257 16.6636 18.4765 16.3159 18.7052 15.9529L17.8668 15.0391L18.6608 13.2533L19.8936 13.2628C20.0069 12.8532 20.0961 12.4321 20.1578 12.0027L19.0303 11.5129L19.0297 10.5422H17.7483C17.7483 14.7732 14.3185 18.2035 10.0872 18.2035C5.85618 18.2035 2.42609 14.7732 2.42609 10.5422L2.42557 10.5429Z" fill="#101011"/>
<path d="M10.0867 3.8994C6.41711 3.8994 3.4426 6.87391 3.4426 10.5427C3.4426 14.2123 6.41711 17.186 10.0867 17.186C13.7555 17.186 16.7297 14.2123 16.7297 10.5427L10.0867 10.5427V11.7519H15.46C14.9089 14.2112 12.7123 16.0487 10.0867 16.0487C7.04537 16.0487 4.57988 13.5838 4.57988 10.5427C4.57988 7.50216 7.04537 5.03643 10.0867 5.03643C11.5136 5.03643 12.8127 5.5786 13.7909 6.46869L14.5562 5.62768C13.376 4.55412 11.808 3.8994 10.0867 3.8994Z" fill="#101011"/>
</g>
<defs>
<clipPath id="clip0_3566_508">
<rect width="20" height="20" fill="white" transform="translate(0 0.5)"/>
</clipPath>
</defs>
</svg>
