<svg width="317" height="50" viewBox="0 0 317 50" fill="none" xmlns="http://www.w3.org/2000/svg">
<g clip-path="url(#clip0_3566_106)">
<path d="M20.3334 34.6203H10.3884L8.96015 39.3094H0.000244141L10.6925 10.8561H20.3L30.9475 39.3094H21.7553L20.3334 34.6203ZM18.4754 28.4608L15.3754 18.2349L12.2596 28.4608H18.4754ZM86.763 39.3094V10.8561H101.389C104.099 10.8561 106.177 11.0894 107.603 11.5597C109.039 12.023 110.196 12.8909 111.075 14.1476C111.956 15.4144 112.392 16.9574 112.392 18.7703C112.392 20.3481 112.055 21.7129 111.38 22.8583C110.711 24.0107 109.787 24.938 108.602 25.6536C107.854 26.1036 106.824 26.481 105.522 26.7788C106.565 27.1302 107.327 27.4747 107.802 27.8243C108.119 28.0575 108.589 28.5607 109.203 29.3224C109.811 30.0835 110.221 30.6733 110.426 31.0905L114.692 39.3094H104.772L100.084 30.6335C99.4901 29.5076 98.9612 28.7788 98.4973 28.4413C97.8643 28.0038 97.1429 27.7857 96.3433 27.7857H95.5696V39.31H86.7624L86.763 39.3094ZM95.5702 22.4209H99.2786C99.6769 22.4209 100.456 22.2888 101.606 22.0302C102.189 21.9177 102.665 21.6193 103.029 21.1358C103.399 20.6522 103.583 20.1029 103.583 19.4802C103.583 18.5611 103.294 17.8512 102.712 17.3607C102.13 16.8638 101.038 16.6179 99.4314 16.6179H95.5702V22.4209ZM117.503 10.8561H140.99V16.9372H126.31V21.467H139.918V27.2687H126.31V32.8699H141.426V39.3088H117.503V10.8555V10.8561ZM216.556 34.6209H206.612L205.184 39.31H196.224L206.915 10.8567H216.524L227.168 39.31H217.978L216.556 34.6209ZM214.698 28.4615L211.598 18.2356L208.483 28.4615H214.698ZM225.225 10.8561H251.928V17.8898H242.96V39.3094H234.192V17.8898H225.226V10.8561H225.225ZM255.899 10.8561H264.669V21.6067L273.866 10.8561H285.538L275.169 21.5473L286.013 39.31H275.215L269.225 27.6271L264.669 32.3838V39.31H255.899V10.8567L255.899 10.8561ZM306.386 34.6209H296.441L295.012 39.31H286.053L296.745 10.8567H306.353L317 39.31H307.807L306.386 34.6209ZM304.528 28.4615L301.428 18.2356L298.313 28.4615H304.528Z" fill="#1A1EB2"/>
<path d="M38.7057 25.0011C38.7057 14.5925 47.1298 6.15614 57.5223 6.15614C62.397 6.15614 66.8388 8.01144 70.1812 11.0583L72.2613 8.76683L70.4759 7.1587L71.4541 4.21931C70.592 3.63775 69.6902 3.10803 68.7549 2.63519L66.6905 4.97723L62.1238 3.49236L61.8202 0.339941C60.8092 0.164841 59.7804 0.0504263 58.7334 0.000488281L57.7798 3.04039L53.0042 3.54672L51.4106 0.724906C50.4097 0.976493 49.4327 1.2894 48.4829 1.65856L48.854 4.90011L44.6975 7.30661L42.0468 5.34512C41.2466 5.97788 40.488 6.65868 39.7704 7.38184L41.4529 10.2353L38.6331 14.1298L35.369 13.4047C34.9014 14.2979 34.4867 15.224 34.1289 16.1766L36.8622 18.1261L35.8651 22.831L32.5751 23.5023C32.5448 23.9992 32.5303 24.4986 32.5303 25.0005C32.5303 25.5157 32.5461 26.0296 32.5763 26.5366L35.8676 27.206L36.8692 31.9065L34.1415 33.8591C34.5006 34.8111 34.9178 35.7359 35.3848 36.6285L38.6495 35.9003L41.4744 39.7904L39.7963 42.6463C40.5138 43.3682 41.2743 44.0477 42.0746 44.678L44.7227 42.7133L48.8805 45.116L48.5138 48.3563C49.4649 48.7242 50.4438 49.034 51.4466 49.2862L53.0345 46.4656L57.8114 46.9637L58.7688 49.998C59.8152 49.9474 60.8451 49.8317 61.8555 49.6547L62.1553 46.5023L66.7183 45.0124L68.7839 47.35C69.7205 46.8759 70.6211 46.3443 71.4844 45.7621L70.5011 42.8239L74.0669 39.6033L76.8476 40.8719C77.5128 40.0584 78.1288 39.2031 78.6905 38.3099L76.6311 36.0621L78.5813 31.6688L81.6094 31.6922C81.8877 30.6846 82.1067 29.6485 82.2581 28.5922L79.4888 27.3874L79.4876 24.9992H76.3402C76.3402 35.4078 67.9161 43.8467 57.5236 43.8467C47.1317 43.8467 38.707 35.4078 38.707 24.9992L38.7057 25.0011Z" fill="#101011"/>
<path d="M57.5223 8.65755C48.5094 8.65755 41.2036 15.9751 41.2036 25.0006C41.2036 34.028 48.5094 41.3436 57.5223 41.3436C66.5333 41.3436 73.8385 34.028 73.8385 25.0006L57.5223 25.0005V27.9753H70.7199C69.3662 34.0254 63.9712 38.5458 57.5223 38.5458C50.0525 38.5458 43.997 32.4818 43.997 25.0006C43.997 17.5206 50.0525 11.4547 57.5223 11.4547C61.0269 11.4547 64.2178 12.7885 66.6204 14.9782L68.4999 12.9092C65.6012 10.2682 61.7501 8.65755 57.5223 8.65755Z" fill="#101011"/>
<path d="M151.412 25.0002C151.412 14.592 159.836 6.15614 170.228 6.15614C175.103 6.15614 179.545 8.01144 182.887 11.0583L184.967 8.76683L183.182 7.1587L184.161 4.21931C183.297 3.63775 182.397 3.10803 181.461 2.63519L179.397 4.97723L174.831 3.49236L174.525 0.339941C173.517 0.164841 172.486 0.0504263 171.44 0.000488281L170.486 3.04039L165.711 3.54672L164.116 0.724906C163.114 0.976493 162.139 1.2894 161.189 1.65856L161.559 4.90011L157.404 7.30661L154.753 5.34512C153.953 5.97788 153.193 6.65868 152.478 7.38184L154.158 10.2353L151.341 14.1298L148.074 13.4047C147.608 14.2979 147.193 15.224 146.834 16.1766L149.569 18.1261L148.572 22.831L145.282 23.5023C145.251 23.9992 145.237 24.4986 145.237 25.0005C145.237 25.5157 145.253 26.0296 145.285 26.5366L148.575 27.206L149.576 31.9065L146.848 33.8591C147.207 34.8111 147.623 35.7359 148.093 36.6285L151.357 35.9003L154.182 39.7904L152.505 42.6463C153.222 43.3682 153.982 44.0477 154.782 44.678L157.43 42.7133L161.588 45.116L161.221 48.3563C162.172 48.7242 163.149 49.034 164.153 49.2862L165.741 46.4656L170.516 46.9637L171.475 49.998C172.521 49.9474 173.552 49.8317 174.562 49.6547L174.862 46.5023L179.426 45.0124L181.49 47.35C182.427 46.8759 183.327 46.3443 184.191 45.7621L183.207 42.8239L186.771 39.6033L189.554 40.8719C190.219 40.0584 190.835 39.2031 191.396 38.3099L189.337 36.0621L191.286 31.6688L194.313 31.6922C194.594 30.6846 194.812 29.6485 194.963 28.5922L192.192 27.3874V24.9992H189.044C189.044 35.4078 180.62 43.8467 170.228 43.8467C159.837 43.8467 151.412 35.4083 151.412 25.0002Z" fill="#101011"/>
<path d="M170.228 8.65755C161.217 8.65755 153.91 15.9751 153.91 25.0006C153.91 34.028 161.217 41.3436 170.228 41.3436C179.239 41.3436 186.546 34.028 186.546 25.0006L170.228 25.0005V27.9753H183.425C182.071 34.0254 176.676 38.5458 170.227 38.5458C162.758 38.5458 156.702 32.4818 156.702 25.0006C156.702 17.5206 162.758 11.4547 170.227 11.4547C173.731 11.4547 176.924 12.7885 179.326 14.9782L181.205 12.9092C178.306 10.2682 174.455 8.65755 170.228 8.65755Z" fill="#101011"/>
</g>
<defs>
<clipPath id="clip0_3566_106">
<rect width="317" height="50" fill="white"/>
</clipPath>
</defs>
</svg>
